<svg width="20" height="20" viewBox="0 0 20 20" fill="none" xmlns="http://www.w3.org/2000/svg">
  <path fill-rule="evenodd" clip-rule="evenodd"
    d="M10.8334 10.8333C10.8334 11.2933 10.46 11.6666 10 11.6666C9.54003 11.6666 9.16669 11.2933 9.16669 10.8333V7.49996C9.16669 7.03996 9.54003 6.66663 10 6.66663C10.46 6.66663 10.8334 7.03996 10.8334 7.49996V10.8333ZM10 14.1666C9.54003 14.1666 9.16669 13.7933 9.16669 13.3333C9.16669 12.8733 9.54003 12.5 10 12.5C10.46 12.5 10.8334 12.8733 10.8334 13.3333C10.8334 13.7933 10.46 14.1666 10 14.1666ZM18.8009 13.5858L12.4075 2.98663C11.9084 2.15996 11.0084 1.66663 10 1.66663C8.99169 1.66663 8.09169 2.15996 7.59253 2.98663L1.19919 13.5858C0.725861 14.3716 0.711694 15.3166 1.16169 16.1133C1.64419 16.9691 2.58169 17.5 3.60669 17.5H16.3934C17.4184 17.5 18.3559 16.9691 18.8384 16.1133C19.2884 15.3166 19.2742 14.3716 18.8009 13.5858Z"
    fill="url(#paint0_linear_109_453)" />
  <defs>
    <linearGradient id="paint0_linear_109_453" x1="10" y1="1.66663" x2="10" y2="17.5"
      gradientUnits="userSpaceOnUse">
      <stop stop-color="#FF5959" />
      <stop offset="1" stop-color="#EF2C2C" />
    </linearGradient>
  </defs>
</svg>
